<?xml version="1.0" encoding="UTF-8"?>
<svg version="1.1" xmlns="http://www.w3.org/2000/svg" width="24" height="24">
<path d="M0 0 C2.93423195 1.79646854 4.47205355 2.9441071 6 6 C6.53118252 10.91996928 6.75105553 14.77327597 4.125 19.0625 C0.38214851 22.47509989 -2.60769925 22.32843064 -7.515625 22.29296875 C-10.97198834 21.88537873 -12.68663869 20.53723498 -15 18 C-16.84862688 14.30274625 -16.47587094 10.03538558 -16 6 C-11.95766104 -0.60248696 -7.2842127 -0.85898735 0 0 Z " fill="#07BAF7" transform="translate(17,1)"/>
<path d="M0 0 C1.65 0 3.3 0 5 0 C5 1.98 5 3.96 5 6 C8.96 6 12.92 6 17 6 C17 4.02 17 2.04 17 0 C18.65 0 20.3 0 22 0 C21.77407627 3.91601134 21.53572471 6.32602376 19.0625 9.4375 C14.66967984 11.67873478 10.83640374 11.77033032 6 11 C2.9375 9.4375 2.9375 9.4375 1 7 C0.1875 3.25 0.1875 3.25 0 0 Z " fill="#0466EB" transform="translate(1,12)"/>
<path d="M0 0 C1.65 0.33 3.3 0.66 5 1 C5.33 1.99 5.66 2.98 6 4 C6.66 4 7.32 4 8 4 C8 6.97 8 9.94 8 13 C4.04 13 0.08 13 -4 13 C-4 10.03 -4 7.06 -4 4 C-3.34 4 -2.68 4 -2 4 C-1.34 2.68 -0.68 1.36 0 0 Z " fill="#82C6F7" transform="translate(10,5)"/>
<path d="M0 0 C1.67542976 0.28604898 3.34385343 0.61781233 5 1 C5 3.97 5 6.94 5 10 C4.67 8.68 4.34 7.36 4 6 C2.68 6 1.36 6 0 6 C-0.33 7.32 -0.66 8.64 -1 10 C-1.02689216 8.52093108 -1.04634621 7.04172517 -1.0625 5.5625 C-1.07410156 4.73878906 -1.08570313 3.91507813 -1.09765625 3.06640625 C-1 1 -1 1 0 0 Z " fill="#34A8F4" transform="translate(10,7)"/>
<path d="M0 0 C0 1.65 0 3.3 0 5 C-1.65 5 -3.3 5 -5 5 C-5 4.01 -5 3.02 -5 2 C-5.66 2 -6.32 2 -7 2 C-7 1.34 -7 0.68 -7 0 C-2.25 -1.125 -2.25 -1.125 0 0 Z " fill="#099FF3" transform="translate(23,7)"/>
<path d="M0 0 C2.31 0 4.62 0 7 0 C7 0.66 7 1.32 7 2 C6.34 2 5.68 2 5 2 C5 2.99 5 3.98 5 5 C3.35 5 1.7 5 0 5 C0 3.35 0 1.7 0 0 Z " fill="#09A0F3" transform="translate(1,7)"/>
<path d="M0 0 C1.65 0 3.3 0 5 0 C5 1.65 5 3.3 5 5 C3.0625 5.5625 3.0625 5.5625 1 6 C0 5 0 5 -0.0625 2.4375 C-0.041875 1.633125 -0.02125 0.82875 0 0 Z " fill="#0584EF" transform="translate(1,12)"/>
<path d="M0 0 C1.65 0 3.3 0 5 0 C5 1.65 5 3.3 5 5 C4.01 5.495 4.01 5.495 3 6 C2.01 5.67 1.02 5.34 0 5 C0 3.35 0 1.7 0 0 Z " fill="#0583EF" transform="translate(18,12)"/>
</svg>
